<svg width="349" height="282" viewBox="0 0 349 282" fill="none" xmlns="http://www.w3.org/2000/svg">
<path d="M313.713 23.598C294.658 8.25869 269.74 0 244.823 0C218.44 0 193.523 9.43897 174.468 25.9586C156.88 9.44008 130.497 0 104.114 0C46.9503 0 2.97857 42.4771 0.047574 97.9328C-2.88342 160.468 130.497 257.222 156.88 276.101C162.743 279.641 168.605 282 175.935 282C181.798 282 189.126 279.641 192.057 276.101C208.18 265.482 347.424 174.628 348.889 97.9328C350.357 69.6148 337.165 42.4759 313.713 23.598ZM177.399 227.723C123.167 187.606 57.2095 126.251 58.6757 99.112C60.1418 69.6137 80.6616 46.0157 105.578 46.0157C123.167 46.0157 140.756 58.9944 148.084 80.2329C152.481 89.6719 162.742 96.7514 175.933 96.7514C189.125 96.7514 200.85 89.6719 203.782 80.2329C211.111 58.9944 228.699 46.0157 247.754 46.0157C260.946 46.0157 269.74 51.9149 275.603 56.635C288.795 66.0739 294.658 81.4132 294.658 97.9317C293.192 134.51 228.701 192.326 177.399 227.723Z" fill="#FFCFCF"/>
<path d="M141.16 123.68C136.16 124.52 131.92 124.68 124.44 124.68V119.96H137.28V117.36H124.44V112.92H138.28V110.28H121.16V127.32H124.08C131.92 127.32 136.28 127.16 141.52 126.28L141.16 123.68ZM128.56 133.92H145.36V140.84H128.56V133.92ZM125.36 143.48H148.56V131.28H125.36V143.48ZM145.28 108.12V129.52H148.56V108.12H145.28ZM185.078 120.4H189.638V130.24H192.798V108.12H189.638V117.72H185.078V108.8H181.958V129.08H185.078V120.4ZM180.478 124.92C175.878 123.16 173.198 119.12 173.198 115.16V110.32H170.038V115.16C170.038 119.16 167.238 123.8 162.558 125.88L164.318 128.44C167.798 126.88 170.358 123.84 171.638 120.48C172.918 123.52 175.358 126.08 178.718 127.44L180.478 124.92ZM180.958 141.4C175.598 141.4 172.238 139.96 172.238 137.48C172.238 135 175.598 133.6 180.958 133.6C186.398 133.6 189.718 135 189.718 137.48C189.718 139.96 186.398 141.4 180.958 141.4ZM180.958 131.04C173.598 131.04 168.998 133.4 168.998 137.48C168.998 141.56 173.598 143.92 180.958 143.92C188.358 143.92 192.958 141.56 192.958 137.48C192.958 133.4 188.358 131.04 180.958 131.04ZM225.555 129.32H228.875V108.12H225.555V115.72H217.755V118.4H225.555V129.32ZM220.355 125.08C215.115 123.24 211.635 118.8 211.635 113.68V110.12H208.355V113.8C208.355 119.28 204.795 124.08 199.275 126.04L200.995 128.72C205.315 127.08 208.555 123.84 210.075 119.6C211.635 123.32 214.675 126.16 218.595 127.64L220.355 125.08ZM217.035 141.32C211.635 141.32 208.355 139.76 208.355 137.16C208.355 134.52 211.635 132.96 217.035 132.96C222.435 132.96 225.715 134.52 225.715 137.16C225.715 139.76 222.435 141.32 217.035 141.32ZM217.035 130.4C209.675 130.4 205.075 132.84 205.075 137.16C205.075 141.44 209.675 143.92 217.035 143.92C224.395 143.92 228.995 141.44 228.995 137.16C228.995 132.84 224.395 130.4 217.035 130.4Z" fill="black"/>
</svg>
